<svg width="42" height="42" viewBox="0 0 42 42" fill="none" xmlns="http://www.w3.org/2000/svg">
<g clip-path="url(#clip0_1_1627)">
<path d="M41.1212 20.5606C41.1212 9.20529 31.9159 0 20.5606 0C9.20529 0 0 9.20529 0 20.5606C0 31.9159 9.20529 41.1212 20.5606 41.1212C31.9159 41.1212 41.1212 31.9159 41.1212 20.5606Z" fill="white"/>
<mask id="mask0_1_1627" style="mask-type:luminance" maskUnits="userSpaceOnUse" x="11" y="11" width="20" height="20">
<path d="M31 11H11V31H31V11Z" fill="white"/>
</mask>
<g mask="url(#mask0_1_1627)">
<path d="M21 12.6666V16" stroke="#FC8151" stroke-width="2" stroke-linecap="round" stroke-linejoin="round"/>
<path d="M21 26V29.3333" stroke="#FC8151" stroke-width="2" stroke-linecap="round" stroke-linejoin="round"/>
<path d="M15.1084 15.1083L17.4667 17.4666" stroke="#FC8151" stroke-width="2" stroke-linecap="round" stroke-linejoin="round"/>
<path d="M24.5332 24.5333L26.8915 26.8917" stroke="#FC8151" stroke-width="2" stroke-linecap="round" stroke-linejoin="round"/>
<path d="M12.667 21H16.0003" stroke="#FC8151" stroke-width="2" stroke-linecap="round" stroke-linejoin="round"/>
<path d="M26 21H29.3333" stroke="#FC8151" stroke-width="2" stroke-linecap="round" stroke-linejoin="round"/>
<path d="M15.1084 26.8917L17.4667 24.5333" stroke="#FC8151" stroke-width="2" stroke-linecap="round" stroke-linejoin="round"/>
<path d="M24.5332 17.4666L26.8915 15.1083" stroke="#FC8151" stroke-width="2" stroke-linecap="round" stroke-linejoin="round"/>
</g>
</g>
<defs>
<clipPath id="clip0_1_1627">
<rect width="42" height="42" fill="white"/>
</clipPath>
</defs>
</svg>
