<svg width="182" height="30" viewBox="0 0 182 30" fill="none" xmlns="http://www.w3.org/2000/svg">
<path d="M0.938447 23V0.696969H15.7382V4.58475H5.65388V8.94081H9.2803C11.0445 8.94081 12.5655 9.22759 13.8433 9.80114C15.1283 10.3674 16.1193 11.1697 16.8163 12.2079C17.5133 13.2461 17.8617 14.4694 17.8617 15.8778C17.8617 17.279 17.5133 18.5169 16.8163 19.5914C16.1193 20.6586 15.1283 21.4935 13.8433 22.0961C12.5655 22.6987 11.0445 23 9.2803 23H0.938447ZM5.65388 19.2102H9.2803C10.1225 19.2102 10.834 19.0578 11.4148 18.7528C11.9956 18.4407 12.4348 18.0305 12.7325 17.5223C13.0374 17.0068 13.1899 16.4441 13.1899 15.8343C13.1899 14.9485 12.8523 14.2008 12.1771 13.5909C11.5092 12.9738 10.5436 12.6652 9.2803 12.6652H5.65388V19.2102ZM23.6907 29.2727C23.1026 29.2727 22.5509 29.2255 22.0354 29.1312C21.5272 29.044 21.1061 28.9315 20.7721 28.7936L21.8176 25.3305C22.3621 25.4975 22.8522 25.5882 23.2878 25.6027C23.7306 25.6173 24.1118 25.5156 24.4312 25.2978C24.7579 25.08 25.0229 24.7098 25.2262 24.187L25.4985 23.4792L19.498 6.27273H24.3768L27.8398 18.5568H28.0141L31.5098 6.27273H36.4213L29.9199 24.8078C29.6077 25.708 29.183 26.4921 28.6457 27.16C28.1157 27.8352 27.4442 28.3543 26.631 28.7173C25.8179 29.0876 24.8378 29.2727 23.6907 29.2727ZM42.6722 6.27273L45.7432 12.1207L48.8905 6.27273H53.6495L48.8034 14.6364L53.7802 23H49.043L45.7432 17.2173L42.498 23H37.7063L42.6722 14.6364L37.8806 6.27273H42.6722Z" fill="white"/>
<path d="M69.9847 23L62.819 13.4929H61.2073V23H56.4918V0.696969H61.2073V9.60511H62.1547L69.56 0.696969H75.4298L66.7286 11.0426L75.8327 23H69.9847ZM84.4468 23.3267C82.7552 23.3267 81.2923 22.9673 80.0581 22.2486C78.8312 21.5226 77.8837 20.5134 77.2158 19.2211C76.5479 17.9216 76.2139 16.4151 76.2139 14.7017C76.2139 12.9738 76.5479 11.4637 77.2158 10.1714C77.8837 8.87184 78.8312 7.86269 80.0581 7.14394C81.2923 6.41793 82.7552 6.05492 84.4468 6.05492C86.1385 6.05492 87.5977 6.41793 88.8247 7.14394C90.0589 7.86269 91.01 8.87184 91.6779 10.1714C92.3458 11.4637 92.6798 12.9738 92.6798 14.7017C92.6798 16.4151 92.3458 17.9216 91.6779 19.2211C91.01 20.5134 90.0589 21.5226 88.8247 22.2486C87.5977 22.9673 86.1385 23.3267 84.4468 23.3267ZM84.4686 19.733C85.2382 19.733 85.8807 19.5152 86.3962 19.0795C86.9117 18.6367 87.3001 18.0341 87.5614 17.2718C87.8301 16.5095 87.9644 15.6419 87.9644 14.669C87.9644 13.6962 87.8301 12.8286 87.5614 12.0663C87.3001 11.304 86.9117 10.7014 86.3962 10.2585C85.8807 9.81566 85.2382 9.59422 84.4686 9.59422C83.6918 9.59422 83.0384 9.81566 82.5084 10.2585C81.9857 10.7014 81.59 11.304 81.3214 12.0663C81.06 12.8286 80.9293 13.6962 80.9293 14.669C80.9293 15.6419 81.06 16.5095 81.3214 17.2718C81.59 18.0341 81.9857 18.6367 82.5084 19.0795C83.0384 19.5152 83.6918 19.733 84.4686 19.733ZM107.338 12.785V16.4332H98.604V12.785H107.338ZM100.129 6.27273V23H95.6964V6.27273H100.129ZM110.246 6.27273V23H105.846V6.27273H110.246ZM121.403 23.3267C119.689 23.3267 118.215 22.9637 116.981 22.2377C115.754 21.5044 114.81 20.488 114.15 19.1884C113.496 17.8889 113.17 16.3933 113.17 14.7017C113.17 12.9883 113.5 11.4855 114.161 10.1932C114.829 8.89362 115.776 7.88084 117.003 7.15483C118.23 6.42156 119.689 6.05492 121.381 6.05492C122.84 6.05492 124.118 6.31992 125.214 6.8499C126.31 7.37989 127.178 8.12405 127.817 9.08239C128.456 10.0407 128.808 11.166 128.873 12.4583H124.495C124.372 11.6234 124.045 10.9519 123.515 10.4437C122.993 9.92819 122.306 9.67045 121.457 9.67045C120.738 9.67045 120.11 9.86648 119.573 10.2585C119.043 10.6433 118.629 11.206 118.332 11.9465C118.034 12.687 117.885 13.5836 117.885 14.6364C117.885 15.7036 118.03 16.6111 118.321 17.3589C118.618 18.1067 119.036 18.6766 119.573 19.0687C120.11 19.4607 120.738 19.6567 121.457 19.6567C121.987 19.6567 122.463 19.5478 122.884 19.33C123.312 19.1122 123.664 18.7964 123.94 18.3826C124.223 17.9615 124.408 17.4569 124.495 16.8688H128.873C128.801 18.1466 128.452 19.2719 127.828 20.2448C127.211 21.2104 126.358 21.9654 125.269 22.5099C124.18 23.0545 122.891 23.3267 121.403 23.3267ZM136.613 23.3158C135.546 23.3158 134.595 23.1307 133.76 22.7604C132.925 22.3829 132.265 21.8275 131.778 21.0942C131.299 20.3537 131.059 19.4317 131.059 18.3281C131.059 17.3988 131.23 16.6184 131.571 15.9867C131.912 15.3551 132.377 14.8469 132.965 14.4621C133.553 14.0773 134.221 13.7869 134.969 13.5909C135.724 13.3949 136.515 13.2569 137.343 13.1771C138.316 13.0754 139.1 12.9811 139.695 12.8939C140.291 12.7996 140.723 12.6616 140.991 12.4801C141.26 12.2986 141.394 12.03 141.394 11.6742V11.6089C141.394 10.9192 141.176 10.3856 140.741 10.008C140.312 9.63052 139.703 9.44176 138.911 9.44176C138.076 9.44176 137.412 9.62689 136.918 9.99716C136.425 10.3602 136.098 10.8176 135.938 11.3693L131.647 11.0208C131.865 10.0044 132.294 9.12595 132.933 8.38542C133.571 7.63763 134.395 7.06408 135.405 6.66477C136.421 6.25821 137.597 6.05492 138.933 6.05492C139.862 6.05492 140.752 6.16383 141.601 6.38163C142.458 6.59943 143.216 6.93703 143.877 7.39441C144.545 7.8518 145.071 8.43987 145.456 9.15862C145.841 9.87011 146.033 10.7232 146.033 11.7178V23H141.634V20.6804H141.503C141.234 21.2031 140.875 21.6641 140.425 22.0634C139.975 22.4555 139.434 22.764 138.802 22.9891C138.171 23.2069 137.441 23.3158 136.613 23.3158ZM137.942 20.1141C138.624 20.1141 139.227 19.9798 139.75 19.7112C140.272 19.4353 140.683 19.065 140.98 18.6004C141.278 18.1357 141.427 17.6094 141.427 17.0213V15.2462C141.282 15.3406 141.082 15.4277 140.828 15.5076C140.581 15.5802 140.302 15.6491 139.989 15.7145C139.677 15.7726 139.365 15.827 139.053 15.8778C138.741 15.9214 138.457 15.9613 138.203 15.9976C137.659 16.0775 137.183 16.2045 136.777 16.3788C136.37 16.553 136.054 16.789 135.829 17.0866C135.604 17.3771 135.492 17.7401 135.492 18.1757C135.492 18.8073 135.72 19.2901 136.178 19.6241C136.642 19.9508 137.231 20.1141 137.942 20.1141ZM148.652 23L148.631 19.3191H149.186C149.578 19.3191 149.916 19.2247 150.199 19.036C150.489 18.84 150.729 18.5241 150.918 18.0885C151.106 17.6529 151.255 17.0758 151.364 16.357C151.473 15.631 151.546 14.738 151.582 13.678L151.854 6.27273H164.574V23H160.152V9.92093H156.025L155.764 15.0284C155.698 16.4296 155.528 17.6348 155.252 18.6439C154.983 19.6531 154.609 20.4807 154.13 21.1269C153.651 21.7658 153.074 22.2377 152.399 22.5426C151.723 22.8475 150.939 23 150.046 23H148.652ZM166.491 9.92093V6.27273H181.65V9.92093H176.259V23H171.838V9.92093H166.491Z" fill="#FC8151"/>
</svg>
