<svg width="42" height="42" viewBox="0 0 42 42" fill="none" xmlns="http://www.w3.org/2000/svg">
<g clip-path="url(#clip0_1_1073)">
<path d="M41.1212 20.5606C41.1212 9.20529 31.9159 0 20.5606 0C9.20529 0 0 9.20529 0 20.5606C0 31.9159 9.20529 41.1212 20.5606 41.1212C31.9159 41.1212 41.1212 31.9159 41.1212 20.5606Z" fill="white"/>
<mask id="mask0_1_1073" style="mask-type:luminance" maskUnits="userSpaceOnUse" x="11" y="11" width="19" height="19">
<path d="M29.1875 11H11V29.1875H29.1875V11Z" fill="white"/>
</mask>
<g mask="url(#mask0_1_1073)">
<path d="M26.9141 18.5781C26.9141 23.8828 20.0938 28.4297 20.0938 28.4297C20.0938 28.4297 13.2734 23.8828 13.2734 18.5781C13.2734 16.7693 13.992 15.0345 15.2711 13.7554C16.5501 12.4764 18.2849 11.7578 20.0938 11.7578C21.9026 11.7578 23.6374 12.4764 24.9164 13.7554C26.1955 15.0345 26.9141 16.7693 26.9141 18.5781Z" stroke="#D25828" stroke-width="1.51562" stroke-linecap="round" stroke-linejoin="round"/>
<path d="M20.0938 20.8516C21.3493 20.8516 22.3672 19.8337 22.3672 18.5781C22.3672 17.3225 21.3493 16.3047 20.0938 16.3047C18.8382 16.3047 17.8203 17.3225 17.8203 18.5781C17.8203 19.8337 18.8382 20.8516 20.0938 20.8516Z" stroke="#D25828" stroke-width="1.51562" stroke-linecap="round" stroke-linejoin="round"/>
</g>
</g>
<defs>
<clipPath id="clip0_1_1073">
<rect width="42" height="42" fill="white"/>
</clipPath>
</defs>
</svg>
