<svg width="66" height="66" viewBox="0 0 66 66" fill="none" xmlns="http://www.w3.org/2000/svg">
<g clip-path="url(#clip0_1_580)">
<g filter="url(#filter0_d_1_580)">
<path d="M53.1212 28.5606C53.1212 17.2053 43.9159 8 32.5606 8C21.2053 8 12 17.2053 12 28.5606C12 39.9159 21.2053 49.1212 32.5606 49.1212C43.9159 49.1212 53.1212 39.9159 53.1212 28.5606Z" fill="white"/>
</g>
<path d="M33 19L43 25.5V32.5L33 39L23 32.5V25.5L33 19Z" stroke="#FC8151" stroke-width="2" stroke-linecap="round" stroke-linejoin="round"/>
<path d="M33 39V32.5" stroke="#FC8151" stroke-width="2" stroke-linecap="round" stroke-linejoin="round"/>
<path d="M43 25.5L33 32.5L23 25.5" stroke="#FC8151" stroke-width="2" stroke-linecap="round" stroke-linejoin="round"/>
<path d="M23 32.5L33 25.5L43 32.5" stroke="#FC8151" stroke-width="2" stroke-linecap="round" stroke-linejoin="round"/>
<path d="M33 19V25.5" stroke="#FC8151" stroke-width="2" stroke-linecap="round" stroke-linejoin="round"/>
</g>
<defs>
<filter id="filter0_d_1_580" x="0" y="0" width="65.1212" height="65.1212" filterUnits="userSpaceOnUse" color-interpolation-filters="sRGB">
<feFlood flood-opacity="0" result="BackgroundImageFix"/>
<feColorMatrix in="SourceAlpha" type="matrix" values="0 0 0 0 0 0 0 0 0 0 0 0 0 0 0 0 0 0 127 0" result="hardAlpha"/>
<feOffset dy="4"/>
<feGaussianBlur stdDeviation="6"/>
<feComposite in2="hardAlpha" operator="out"/>
<feColorMatrix type="matrix" values="0 0 0 0 0 0 0 0 0 0 0 0 0 0 0 0 0 0 0.08 0"/>
<feBlend mode="normal" in2="BackgroundImageFix" result="effect1_dropShadow_1_580"/>
<feBlend mode="normal" in="SourceGraphic" in2="effect1_dropShadow_1_580" result="shape"/>
</filter>
<clipPath id="clip0_1_580">
<rect width="66" height="66" fill="white"/>
</clipPath>
</defs>
</svg>
