<svg width="66" height="66" viewBox="0 0 66 66" fill="none" xmlns="http://www.w3.org/2000/svg">
<g clip-path="url(#clip0_1_576)">
<g filter="url(#filter0_d_1_576)">
<path d="M53.1212 28.5606C53.1212 17.2053 43.9159 8 32.5606 8C21.2053 8 12 17.2053 12 28.5606C12 39.9159 21.2053 49.1212 32.5606 49.1212C43.9159 49.1212 53.1212 39.9159 53.1212 28.5606Z" fill="white"/>
</g>
<path d="M28 28L32 19C32.7956 19 33.5587 19.3161 34.1213 19.8787C34.6839 20.4413 35 21.2044 35 22V26H40.66C40.9499 25.9967 41.2371 26.0565 41.5016 26.1752C41.7661 26.2939 42.0016 26.4687 42.1919 26.6875C42.3821 26.9063 42.5225 27.1638 42.6033 27.4423C42.6842 27.7207 42.7035 28.0134 42.66 28.3L41.28 37.3C41.2077 37.7769 40.9654 38.2116 40.5979 38.524C40.2304 38.8364 39.7623 39.0055 39.28 39H28M28 28V39M28 28H25C24.4696 28 23.9609 28.2107 23.5858 28.5858C23.2107 28.9609 23 29.4696 23 30V37C23 37.5304 23.2107 38.0391 23.5858 38.4142C23.9609 38.7893 24.4696 39 25 39H28" stroke="#FC8151" stroke-width="2" stroke-linecap="round" stroke-linejoin="round"/>
</g>
<defs>
<filter id="filter0_d_1_576" x="0" y="0" width="65.1212" height="65.1211" filterUnits="userSpaceOnUse" color-interpolation-filters="sRGB">
<feFlood flood-opacity="0" result="BackgroundImageFix"/>
<feColorMatrix in="SourceAlpha" type="matrix" values="0 0 0 0 0 0 0 0 0 0 0 0 0 0 0 0 0 0 127 0" result="hardAlpha"/>
<feOffset dy="4"/>
<feGaussianBlur stdDeviation="6"/>
<feComposite in2="hardAlpha" operator="out"/>
<feColorMatrix type="matrix" values="0 0 0 0 0 0 0 0 0 0 0 0 0 0 0 0 0 0 0.08 0"/>
<feBlend mode="normal" in2="BackgroundImageFix" result="effect1_dropShadow_1_576"/>
<feBlend mode="normal" in="SourceGraphic" in2="effect1_dropShadow_1_576" result="shape"/>
</filter>
<clipPath id="clip0_1_576">
<rect width="66" height="66" fill="white"/>
</clipPath>
</defs>
</svg>
