<svg width="66" height="66" viewBox="0 0 66 66" fill="none" xmlns="http://www.w3.org/2000/svg">
<g clip-path="url(#clip0_1_571)">
<g filter="url(#filter0_d_1_571)">
<path d="M53.1212 28.5606C53.1212 17.2053 43.9159 8 32.5606 8C21.2053 8 12 17.2053 12 28.5606C12 39.9159 21.2053 49.1212 32.5606 49.1212C43.9159 49.1212 53.1212 39.9159 53.1212 28.5606Z" fill="white"/>
</g>
<path d="M33 37H42" stroke="#FC8151" stroke-width="2" stroke-linecap="round" stroke-linejoin="round"/>
<path d="M37.5 20.5C37.8978 20.1022 38.4374 19.8787 39 19.8787C39.2786 19.8787 39.5544 19.9335 39.8118 20.0401C40.0692 20.1467 40.303 20.303 40.5 20.5C40.697 20.697 40.8532 20.9308 40.9598 21.1882C41.0665 21.4456 41.1213 21.7214 41.1213 22C41.1213 22.2786 41.0665 22.5544 40.9598 22.8118C40.8532 23.0691 40.697 23.303 40.5 23.5L28 36L24 37L25 33L37.5 20.5Z" stroke="#FC8151" stroke-width="2" stroke-linecap="round" stroke-linejoin="round"/>
</g>
<defs>
<filter id="filter0_d_1_571" x="0" y="0" width="65.1212" height="65.1211" filterUnits="userSpaceOnUse" color-interpolation-filters="sRGB">
<feFlood flood-opacity="0" result="BackgroundImageFix"/>
<feColorMatrix in="SourceAlpha" type="matrix" values="0 0 0 0 0 0 0 0 0 0 0 0 0 0 0 0 0 0 127 0" result="hardAlpha"/>
<feOffset dy="4"/>
<feGaussianBlur stdDeviation="6"/>
<feComposite in2="hardAlpha" operator="out"/>
<feColorMatrix type="matrix" values="0 0 0 0 0 0 0 0 0 0 0 0 0 0 0 0 0 0 0.08 0"/>
<feBlend mode="normal" in2="BackgroundImageFix" result="effect1_dropShadow_1_571"/>
<feBlend mode="normal" in="SourceGraphic" in2="effect1_dropShadow_1_571" result="shape"/>
</filter>
<clipPath id="clip0_1_571">
<rect width="66" height="66" fill="white"/>
</clipPath>
</defs>
</svg>
