<svg width="66" height="66" viewBox="0 0 66 66" fill="none" xmlns="http://www.w3.org/2000/svg">
<g clip-path="url(#clip0_1_565)">
<g filter="url(#filter0_d_1_565)">
<path d="M53.1212 28.5606C53.1212 17.2053 43.9159 8 32.5606 8C21.2053 8 12 17.2053 12 28.5606C12 39.9159 21.2053 49.1212 32.5606 49.1212C43.9159 49.1212 53.1212 39.9159 53.1212 28.5606Z" fill="white"/>
</g>
<path d="M37 38V36C37 34.9391 36.5786 33.9217 35.8284 33.1716C35.0783 32.4214 34.0609 32 33 32H26C24.9391 32 23.9217 32.4214 23.1716 33.1716C22.4214 33.9217 22 34.9391 22 36V38" stroke="#FC8151" stroke-width="2" stroke-linecap="round" stroke-linejoin="round"/>
<path d="M29.5 28C31.7091 28 33.5 26.2091 33.5 24C33.5 21.7909 31.7091 20 29.5 20C27.2909 20 25.5 21.7909 25.5 24C25.5 26.2091 27.2909 28 29.5 28Z" stroke="#FC8151" stroke-width="2" stroke-linecap="round" stroke-linejoin="round"/>
<path d="M38 28L40 30L44 26" stroke="#FC8151" stroke-width="2" stroke-linecap="round" stroke-linejoin="round"/>
</g>
<defs>
<filter id="filter0_d_1_565" x="0" y="0" width="65.1212" height="65.1211" filterUnits="userSpaceOnUse" color-interpolation-filters="sRGB">
<feFlood flood-opacity="0" result="BackgroundImageFix"/>
<feColorMatrix in="SourceAlpha" type="matrix" values="0 0 0 0 0 0 0 0 0 0 0 0 0 0 0 0 0 0 127 0" result="hardAlpha"/>
<feOffset dy="4"/>
<feGaussianBlur stdDeviation="6"/>
<feComposite in2="hardAlpha" operator="out"/>
<feColorMatrix type="matrix" values="0 0 0 0 0 0 0 0 0 0 0 0 0 0 0 0 0 0 0.08 0"/>
<feBlend mode="normal" in2="BackgroundImageFix" result="effect1_dropShadow_1_565"/>
<feBlend mode="normal" in="SourceGraphic" in2="effect1_dropShadow_1_565" result="shape"/>
</filter>
<clipPath id="clip0_1_565">
<rect width="66" height="66" fill="white"/>
</clipPath>
</defs>
</svg>
