<svg width="66" height="66" viewBox="0 0 66 66" fill="none" xmlns="http://www.w3.org/2000/svg">
<g clip-path="url(#clip0_50_521)">
<g filter="url(#filter0_d_50_521)">
<path d="M53.1212 28.5606C53.1212 17.2053 43.9159 8 32.5606 8C21.2053 8 12 17.2053 12 28.5606C12 39.9159 21.2053 49.1212 32.5606 49.1212C43.9159 49.1212 53.1212 39.9159 53.1212 28.5606Z" fill="white"/>
</g>
<path d="M22 29C22 29 26 21 33 21C40 21 44 29 44 29C44 29 40 37 33 37C26 37 22 29 22 29Z" stroke="#FC8151" stroke-width="2" stroke-linecap="round" stroke-linejoin="round"/>
<path d="M33 32C34.6569 32 36 30.6569 36 29C36 27.3431 34.6569 26 33 26C31.3431 26 30 27.3431 30 29C30 30.6569 31.3431 32 33 32Z" stroke="#FC8151" stroke-width="2" stroke-linecap="round" stroke-linejoin="round"/>
</g>
<defs>
<filter id="filter0_d_50_521" x="0" y="0" width="65.1211" height="65.1212" filterUnits="userSpaceOnUse" color-interpolation-filters="sRGB">
<feFlood flood-opacity="0" result="BackgroundImageFix"/>
<feColorMatrix in="SourceAlpha" type="matrix" values="0 0 0 0 0 0 0 0 0 0 0 0 0 0 0 0 0 0 127 0" result="hardAlpha"/>
<feOffset dy="4"/>
<feGaussianBlur stdDeviation="6"/>
<feComposite in2="hardAlpha" operator="out"/>
<feColorMatrix type="matrix" values="0 0 0 0 0 0 0 0 0 0 0 0 0 0 0 0 0 0 0.08 0"/>
<feBlend mode="normal" in2="BackgroundImageFix" result="effect1_dropShadow_50_521"/>
<feBlend mode="normal" in="SourceGraphic" in2="effect1_dropShadow_50_521" result="shape"/>
</filter>
<clipPath id="clip0_50_521">
<rect width="66" height="66" fill="white"/>
</clipPath>
</defs>
</svg>
