<svg width="42" height="42" viewBox="0 0 42 42" fill="none" xmlns="http://www.w3.org/2000/svg">
<g clip-path="url(#clip0_1_1081)">
<path d="M41.1212 20.5606C41.1212 9.20529 31.9159 0 20.5606 0C9.20529 0 0 9.20529 0 20.5606C0 31.9159 9.20529 41.1212 20.5606 41.1212C31.9159 41.1212 41.1212 31.9159 41.1212 20.5606Z" fill="white"/>
<path d="M27.672 23.8223V26.0957C27.6729 26.3068 27.6297 26.5157 27.5451 26.709C27.4606 26.9024 27.3366 27.076 27.181 27.2187C27.0255 27.3614 26.8419 27.47 26.642 27.5376C26.4421 27.6052 26.2302 27.6303 26.02 27.6113C23.6881 27.3579 21.4481 26.5611 19.4801 25.2848C17.6491 24.1213 16.0967 22.569 14.9332 20.738C13.6525 18.761 12.8555 16.5101 12.6067 14.1677C12.5878 13.9582 12.6127 13.747 12.6799 13.5476C12.747 13.3481 12.855 13.1649 12.9968 13.0095C13.1387 12.8541 13.3114 12.7299 13.5038 12.6449C13.6963 12.5599 13.9044 12.5159 14.1148 12.5157H16.3882C16.756 12.5121 17.1125 12.6423 17.3914 12.8821C17.6702 13.1219 17.8524 13.455 17.9038 13.8191C17.9998 14.5467 18.1778 15.261 18.4343 15.9486C18.5363 16.2198 18.5583 16.5146 18.4979 16.798C18.4375 17.0814 18.297 17.3415 18.0933 17.5476L17.1309 18.51C18.2097 20.4072 19.7805 21.9781 21.6778 23.0569L22.6402 22.0944C22.8462 21.8907 23.1063 21.7503 23.3897 21.6898C23.6731 21.6294 23.9679 21.6515 24.2392 21.7534C24.9267 22.01 25.6411 22.1879 26.3686 22.2839C26.7367 22.3358 27.0729 22.5213 27.3133 22.8049C27.5536 23.0885 27.6813 23.4506 27.672 23.8223Z" stroke="#D25828" stroke-width="1.51562" stroke-linecap="round" stroke-linejoin="round"/>
</g>
<defs>
<clipPath id="clip0_1_1081">
<rect width="42" height="42" fill="white"/>
</clipPath>
</defs>
</svg>
