<svg width="48" height="48" viewBox="0 0 48 48" fill="none" xmlns="http://www.w3.org/2000/svg">
<g clip-path="url(#clip0_2_60)">
<mask id="mask0_2_60" style="mask-type:luminance" maskUnits="userSpaceOnUse" x="0" y="0" width="48" height="48">
<path d="M48 0H0V48H48V0Z" fill="white"/>
</mask>
<g mask="url(#mask0_2_60)">
<path d="M24 12C26.2 12 28 13.8 28 16C28 18.2 26.2 20 24 20C21.8 20 20 18.2 20 16C20 13.8 21.8 12 24 12ZM24 30C29.4 30 35.6 32.58 36 34V36H12V34.02C12.4 32.58 18.6 30 24 30ZM24 8C19.58 8 16 11.58 16 16C16 20.42 19.58 24 24 24C28.42 24 32 20.42 32 16C32 11.58 28.42 8 24 8ZM24 26C18.66 26 8 28.68 8 34V40H40V34C40 28.68 29.34 26 24 26Z" fill="#F59F31"/>
</g>
</g>
<defs>
<clipPath id="clip0_2_60">
<rect width="48" height="48" fill="white"/>
</clipPath>
</defs>
</svg>
