<svg width="48" height="48" viewBox="0 0 48 48" fill="none" xmlns="http://www.w3.org/2000/svg">
<g clip-path="url(#clip0_2_54)">
<mask id="mask0_2_54" style="mask-type:luminance" maskUnits="userSpaceOnUse" x="0" y="0" width="48" height="48">
<path d="M48 0H0V48H48V0Z" fill="white"/>
</mask>
<g mask="url(#mask0_2_54)">
<path d="M34 24C28.48 24 24 28.48 24 34C24 39.52 28.48 44 34 44C39.52 44 44 39.52 44 34C44 28.48 39.52 24 34 24ZM37.3 38.7L33 34.4V28H35V33.58L38.7 37.28L37.3 38.7ZM36 6H29.64C28.8 3.68 26.6 2 24 2C21.4 2 19.2 3.68 18.36 6H12C9.8 6 8 7.8 8 10V40C8 42.2 9.8 44 12 44H24.22C23.04 42.86 22.08 41.5 21.38 40H12V10H16V16H32V10H36V20.16C37.42 20.36 38.76 20.78 40 21.36V10C40 7.8 38.2 6 36 6ZM24 10C22.9 10 22 9.1 22 8C22 6.9 22.9 6 24 6C25.1 6 26 6.9 26 8C26 9.1 25.1 10 24 10Z" fill="#F59F31"/>
</g>
</g>
<defs>
<clipPath id="clip0_2_54">
<rect width="48" height="48" fill="white"/>
</clipPath>
</defs>
</svg>
