<svg width="435" height="167" viewBox="0 0 435 167" fill="none" xmlns="http://www.w3.org/2000/svg">
<g clip-path="url(#clip0_1_641)">
<path d="M126.162 108.884C126.162 118.088 124.302 126.029 120.582 132.709C117.01 139.389 112.1 144.882 105.85 149.187C99.7496 153.492 92.9792 156.683 85.5392 158.761C78.248 160.691 70.808 161.656 63.2192 161.656C53.696 161.656 45.0656 160.691 37.328 158.761C29.5904 156.98 22.7456 154.605 16.7936 151.636C10.8416 148.519 5.4104 145.105 0.5 141.393L15.2312 110.443C19.5464 114.005 23.936 117.049 28.4 119.572C33.0128 121.947 37.6256 123.877 42.2384 125.361C46.8512 126.697 51.0176 127.365 54.7376 127.365C61.136 127.365 66.5672 126.549 71.0312 124.916C75.4952 123.283 78.9176 120.76 81.2984 117.345C83.6792 113.931 84.8696 109.775 84.8696 104.876C84.8696 99.6805 83.3816 95.5241 80.4056 92.4068C77.5784 89.141 73.8584 86.7659 69.2456 85.2814C64.7816 83.797 59.9456 83.0548 54.7376 83.0548C50.72 83.0548 46.256 83.3517 41.3456 83.9454C36.584 84.3908 31.5992 85.3557 26.3912 86.8401C21.332 88.1761 16.124 90.1801 10.7672 92.8521L32.6408 2.89478H122.814V35.4041H60.3176L51.3896 63.2374C55.556 61.3077 59.8712 59.9717 64.3352 59.2294C68.948 58.3388 73.7096 57.8934 78.62 57.8934C86.9528 57.8934 94.6904 59.8974 101.833 63.9054C109.124 67.9134 115.002 73.7028 119.466 81.2734C123.93 88.8441 126.162 98.0477 126.162 108.884Z" fill="white"/>
<path d="M180.294 80.828C180.294 88.1018 180.964 94.7818 182.303 100.868C183.642 106.806 185.577 111.927 188.106 116.232C190.636 120.388 193.612 123.654 197.034 126.029C200.606 128.256 204.549 129.369 208.864 129.369C213.179 129.369 217.048 128.256 220.47 126.029C224.042 123.654 227.092 120.388 229.622 116.232C232.151 111.927 234.086 106.806 235.425 100.868C236.764 94.7818 237.434 88.1018 237.434 80.828C237.434 73.5542 236.764 66.9484 235.425 61.0107C234.086 54.9244 232.151 49.8031 229.622 45.6467C227.092 41.3418 224.042 38.076 220.47 35.8493C217.048 33.4742 213.179 32.2867 208.864 32.2867C204.549 32.2867 200.606 33.4742 197.034 35.8493C193.612 38.076 190.636 41.3418 188.106 45.6467C185.577 49.8031 183.642 54.9244 182.303 61.0107C180.964 66.9484 180.294 73.5542 180.294 80.828ZM143.913 80.828C143.913 63.9053 146.591 49.432 151.948 37.408C157.454 25.384 165.117 16.1804 174.938 9.79733C184.758 3.26578 196.067 0 208.864 0C222.256 0 233.788 3.26578 243.46 9.79733C253.132 16.1804 260.572 25.384 265.78 37.408C271.137 49.432 273.815 63.9053 273.815 80.828C273.815 97.7507 271.137 112.224 265.78 124.248C260.572 136.272 253.132 145.55 243.46 152.081C233.788 158.464 222.256 161.656 208.864 161.656C196.067 161.656 184.758 158.464 174.938 152.081C165.117 145.55 157.454 136.272 151.948 124.248C146.591 112.224 143.913 97.7507 143.913 80.828Z" fill="white"/>
<path d="M138.562 108.884C138.562 118.088 136.702 126.029 132.982 132.709C129.41 139.389 124.5 144.882 118.25 149.187C112.15 153.492 105.379 156.683 97.9392 158.761C90.648 160.691 83.208 161.656 75.6192 161.656C66.096 161.656 57.4656 160.691 49.728 158.761C41.9904 156.98 35.1456 154.605 29.1936 151.636C23.2416 148.519 17.8104 145.105 12.9 141.393L27.6312 110.443C31.9464 114.005 36.336 117.049 40.8 119.572C45.4128 121.947 50.0256 123.877 54.6384 125.361C59.2512 126.697 63.4176 127.365 67.1376 127.365C73.536 127.365 78.9672 126.549 83.4312 124.916C87.8952 123.283 91.3176 120.76 93.6984 117.345C96.0792 113.931 97.2696 109.775 97.2696 104.876C97.2696 99.6805 95.7816 95.5241 92.8056 92.4068C89.9784 89.141 86.2584 86.7659 81.6456 85.2814C77.1816 83.797 72.3456 83.0548 67.1376 83.0548C63.12 83.0548 58.656 83.3517 53.7456 83.9454C48.984 84.3908 43.9992 85.3557 38.7912 86.8401C33.732 88.1761 28.524 90.1801 23.1672 92.8521L45.0408 2.89478H135.214V35.4041H72.7176L63.7896 63.2374C67.956 61.3077 72.2712 59.9717 76.7352 59.2294C81.348 58.3388 86.1096 57.8934 91.02 57.8934C99.3528 57.8934 107.09 59.8974 114.233 63.9054C121.524 67.9134 127.402 73.7028 131.866 81.2734C136.33 88.8441 138.562 98.0477 138.562 108.884Z" fill="#FC8151"/>
<path d="M192.694 80.828C192.694 88.1018 193.364 94.7818 194.703 100.868C196.042 106.806 197.977 111.927 200.506 116.232C203.036 120.388 206.012 123.654 209.434 126.029C213.006 128.256 216.949 129.369 221.264 129.369C225.579 129.369 229.448 128.256 232.87 126.029C236.442 123.654 239.492 120.388 242.022 116.232C244.551 111.927 246.486 106.806 247.825 100.868C249.164 94.7818 249.834 88.1018 249.834 80.828C249.834 73.5542 249.164 66.9484 247.825 61.0107C246.486 54.9244 244.551 49.8031 242.022 45.6467C239.492 41.3418 236.442 38.076 232.87 35.8493C229.448 33.4742 225.579 32.2867 221.264 32.2867C216.949 32.2867 213.006 33.4742 209.434 35.8493C206.012 38.076 203.036 41.3418 200.506 45.6467C197.977 49.8031 196.042 54.9244 194.703 61.0107C193.364 66.9484 192.694 73.5542 192.694 80.828ZM156.313 80.828C156.313 63.9053 158.991 49.432 164.348 37.408C169.854 25.384 177.517 16.1804 187.338 9.79733C197.158 3.26578 208.467 0 221.264 0C234.656 0 246.188 3.26578 255.86 9.79733C265.532 16.1804 272.972 25.384 278.18 37.408C283.537 49.432 286.215 63.9053 286.215 80.828C286.215 97.7507 283.537 112.224 278.18 124.248C272.972 136.272 265.532 145.55 255.86 152.081C246.188 158.464 234.656 161.656 221.264 161.656C208.467 161.656 197.158 158.464 187.338 152.081C177.517 145.55 169.854 136.272 164.348 124.248C158.991 112.224 156.313 97.7507 156.313 80.828Z" fill="#FC8151"/>
<path d="M310.5 91.2946C310.5 86.9366 311.522 83.0393 313.568 79.6028C315.699 76.0828 318.596 73.2753 322.261 71.1798C325.926 69.0849 330.059 68.0371 334.661 68.0371C339.263 68.0371 343.354 69.0849 346.933 71.1798C350.598 73.2753 353.495 76.0828 355.626 79.6028C357.756 83.0393 358.822 86.9366 358.822 91.2946C358.822 95.4851 357.756 99.3824 355.626 102.986C353.495 106.506 350.598 109.313 346.933 111.409C343.354 113.42 339.263 114.426 334.661 114.426C330.059 114.426 325.926 113.42 322.261 111.409C318.596 109.313 315.699 106.506 313.568 102.986C311.522 99.3824 310.5 95.4851 310.5 91.2946ZM326.352 91.1685C326.352 92.677 326.693 94.1021 327.374 95.443C328.141 96.6999 329.121 97.7056 330.315 98.4602C331.593 99.2148 332.999 99.5915 334.533 99.5915C336.237 99.5915 337.686 99.2148 338.879 98.4602C340.158 97.7056 341.138 96.6999 341.819 95.443C342.501 94.1021 342.842 92.7191 342.842 91.2946C342.842 89.702 342.501 88.2775 341.819 87.0201C341.138 85.7632 340.158 84.7575 338.879 84.0029C337.686 83.249 336.237 82.8717 334.533 82.8717C332.999 82.8717 331.593 83.249 330.315 84.0029C329.121 84.7575 328.141 85.7632 327.374 87.0201C326.693 88.2775 326.352 89.6599 326.352 91.1685ZM373.778 137.557C373.778 133.283 374.844 129.386 376.974 125.866C379.105 122.346 382.002 119.539 385.667 117.443C389.332 115.348 393.423 114.3 397.939 114.3C402.541 114.3 406.674 115.348 410.339 117.443C414.004 119.539 416.858 122.346 418.904 125.866C421.035 129.386 422.1 133.283 422.1 137.557C422.1 141.832 421.035 145.729 418.904 149.249C416.858 152.769 414.004 155.577 410.339 157.672C406.674 159.767 402.541 160.815 397.939 160.815C393.423 160.815 389.332 159.767 385.667 157.672C382.002 155.577 379.105 152.769 376.974 149.249C374.844 145.729 373.778 141.832 373.778 137.557ZM389.758 137.557C389.758 138.982 390.099 140.365 390.781 141.706C391.462 142.963 392.4 143.969 393.593 144.724C394.871 145.477 396.32 145.855 397.939 145.855C399.559 145.855 400.965 145.477 402.158 144.724C403.436 143.969 404.416 142.963 405.098 141.706C405.865 140.365 406.248 138.982 406.248 137.557C406.248 136.049 405.865 134.666 405.098 133.409C404.416 132.068 403.436 131.02 402.158 130.266C400.965 129.512 399.559 129.134 397.939 129.134C396.32 129.134 394.871 129.512 393.593 130.266C392.4 131.02 391.462 132.026 390.781 133.283C390.099 134.54 389.758 135.965 389.758 137.557ZM390.652 70.4258H410.595L341.948 158.426H322.005L390.652 70.4258Z" fill="white"/>
<path d="M322.9 91.2946C322.9 86.9366 323.922 83.0393 325.968 79.6028C328.099 76.0828 330.996 73.2753 334.661 71.1798C338.326 69.0849 342.459 68.0371 347.061 68.0371C351.663 68.0371 355.754 69.0849 359.333 71.1798C362.998 73.2753 365.895 76.0828 368.026 79.6028C370.156 83.0393 371.222 86.9366 371.222 91.2946C371.222 95.4851 370.156 99.3824 368.026 102.986C365.895 106.506 362.998 109.313 359.333 111.409C355.754 113.42 351.663 114.426 347.061 114.426C342.459 114.426 338.326 113.42 334.661 111.409C330.996 109.313 328.099 106.506 325.968 102.986C323.922 99.3824 322.9 95.4851 322.9 91.2946ZM338.752 91.1685C338.752 92.677 339.093 94.1021 339.774 95.443C340.541 96.6999 341.521 97.7056 342.715 98.4602C343.993 99.2148 345.399 99.5915 346.933 99.5915C348.637 99.5915 350.086 99.2148 351.279 98.4602C352.558 97.7056 353.538 96.6999 354.219 95.443C354.901 94.1021 355.242 92.7191 355.242 91.2946C355.242 89.702 354.901 88.2775 354.219 87.0201C353.538 85.7632 352.558 84.7575 351.279 84.0029C350.086 83.249 348.637 82.8717 346.933 82.8717C345.399 82.8717 343.993 83.249 342.715 84.0029C341.521 84.7575 340.541 85.7632 339.774 87.0201C339.093 88.2775 338.752 89.6599 338.752 91.1685ZM386.178 137.557C386.178 133.283 387.244 129.386 389.374 125.866C391.505 122.346 394.402 119.539 398.067 117.443C401.732 115.348 405.823 114.3 410.339 114.3C414.941 114.3 419.074 115.348 422.739 117.443C426.404 119.539 429.258 122.346 431.304 125.866C433.435 129.386 434.5 133.283 434.5 137.557C434.5 141.832 433.435 145.729 431.304 149.249C429.258 152.769 426.404 155.577 422.739 157.672C419.074 159.767 414.941 160.815 410.339 160.815C405.823 160.815 401.732 159.767 398.067 157.672C394.402 155.577 391.505 152.769 389.374 149.249C387.244 145.729 386.178 141.832 386.178 137.557ZM402.158 137.557C402.158 138.982 402.499 140.365 403.181 141.706C403.862 142.963 404.8 143.969 405.993 144.724C407.271 145.477 408.72 145.855 410.339 145.855C411.959 145.855 413.365 145.477 414.558 144.724C415.836 143.969 416.816 142.963 417.498 141.706C418.265 140.365 418.648 138.982 418.648 137.557C418.648 136.049 418.265 134.666 417.498 133.409C416.816 132.068 415.836 131.02 414.558 130.266C413.365 129.512 411.959 129.134 410.339 129.134C408.72 129.134 407.271 129.512 405.993 130.266C404.8 131.02 403.862 132.026 403.181 133.283C402.499 134.54 402.158 135.965 402.158 137.557ZM403.052 70.4258H422.995L354.348 158.426H334.405L403.052 70.4258Z" fill="#FC8151"/>
</g>
<defs>
<clipPath id="clip0_1_641">
<rect width="434" height="167" fill="white" transform="translate(0.5)"/>
</clipPath>
</defs>
</svg>
